<svg xmlns="http://www.w3.org/2000/svg" viewBox="0 0 512 512">
  <defs>
    <linearGradient id="bg" x1="0" y1="0" x2="1" y2="1">
      <stop offset="0%" stop-color="#06101f"/>
      <stop offset="100%" stop-color="#0b1830"/>
    </linearGradient>
    <linearGradient id="shield" x1="0" y1="0" x2="1" y2="1">
      <stop offset="0%" stop-color="#00AEEF"/>
      <stop offset="100%" stop-color="#00F0FF"/>
    </linearGradient>
  </defs>

  <rect width="512" height="512" rx="112" fill="url(#bg)"/>
  <rect x="24" y="24" width="464" height="464" rx="96" fill="none" stroke="#00F0FF" stroke-opacity=".18" stroke-width="8"/>

  <path
    d="M256 88
       L382 136
       V232
       C382 316 332 389 256 430
       C180 389 130 316 130 232
       V136
       Z"
    fill="url(#shield)"
    fill-opacity=".12"
    stroke="url(#shield)"
    stroke-width="18"
    stroke-linejoin="round"
  />

  <circle cx="256" cy="236" r="82" fill="#FF3B5C" fill-opacity=".16" stroke="#FF647E" stroke-width="14"/>
  <path
    d="M256 182
       C270 182 282 194 282 208
       C282 218 278 226 271 233
       L264 240
       C258 246 256 251 256 260"
    fill="none"
    stroke="#ffffff"
    stroke-width="18"
    stroke-linecap="round"
    stroke-linejoin="round"
  />
  <circle cx="256" cy="292" r="11" fill="#ffffff"/>

  <path d="M176 132 L208 164" stroke="#00F0FF" stroke-opacity=".45" stroke-width="10" stroke-linecap="round"/>
  <path d="M336 132 L304 164" stroke="#00F0FF" stroke-opacity=".45" stroke-width="10" stroke-linecap="round"/>
  <path d="M152 216 L196 224" stroke="#00F0FF" stroke-opacity=".32" stroke-width="10" stroke-linecap="round"/>
  <path d="M360 224 L404 216" stroke="#00F0FF" stroke-opacity=".32" stroke-width="10" stroke-linecap="round"/>
</svg>
